# xmcd
#
# Track frame offsets:
#	150
#	13800
#	28749
#	28943
#	41788
#	55956
#	70281
#	86026
#	101366
#	114738
#	127596
#	143123
#	156603
#	169808
#	185091
#
# Disc length: 2875 seconds
# Revision: 0
# Processed by: cddbd v1.5.2PL0 Copyright (c) Steve Scherf et al.
# Submitted via: dBpowerAMP V12.0
#
DISCID=d80b390f
DTITLE=Bessie Smith - Bessie Smith - Martin Scorsese Presents the Blues
DYEAR=2003
DGENRE=Blues
TTITLE0=01.A Good Man Is Hard to Find
TTITLE1=02.I Ain't Goin' to Play No Second Fiddle
TTITLE2=03.Me and My Gin
TTITLE3=04.Muddy Water (A Mississippi Moan)
TTITLE4=05.St. Louis Blues
TTITLE5=06.Tain't Nobody's Bizness If I Do
TTITLE6=07.Careless Love
TTITLE7=08.The Yellow Dog Blues
TTITLE8=09.Need a Little Sugar in My Bowl
TTITLE9=10.Down Hearted Blues
TTITLE10=11.Nobody Knows You When You're Down and Out
TTITLE11=12.On Revival Day (A Rhythmic Spiritual)
TTITLE12=13.Send Me to the 'Lectric Chair
TTITLE13=14.Gimme a Pigfoot and a Bottle of Beer
TTITLE14=15.Back Water Blues
EXTD=
EXTT0=
EXTT1=
EXTT2=
EXTT3=
EXTT4=
EXTT5=
EXTT6=
EXTT7=
EXTT8=
EXTT9=
EXTT10=
EXTT11=
EXTT12=
EXTT13=
EXTT14=
PLAYORDER=
